PathFileType	4	(x/y/z)	S05_P20_T07
DataRate	CameraRate	NumFrames	NumMarkers	Units	OrigDataRate	OrigDataStartFrame	OrigNumFrames
240	240	7	50	mm	240	95	376
Frame#	Time	Sternum			R.Acromium			L.Acromium			Top.Head			R.ASIS			L.ASIS			R.PSIS			L.PSIS			R.Great.Tro			L.Great.Tro			R.Iliac.Crest			L.Iliac.Crest			V.Sacral			R.Thigh.Upper.Post			R.Thigh.Lower.Ant			R.Thigh.Lower.Post			R.Thigh.Upper.Ant			R.Knee.Lat			R.Knee.Med			R.Shank.Upper.Post			R.Shank.Lower.Ant			R.Shank.Lower.Post			R.Shank.Upper.Ant			R.Ankle.Lat			R.Ankle.Med			R.Heel.Upper			R.Heel.Med			R.Heel.Lat			R.Toe.Lat			R.Toe.Med			R.Toe.Tip			L.Thigh.Upper.Post			L.Thigh.Lower.Ant			L.Thigh.Lower.Post			L.Thigh.Upper.Ant			L.Knee.Lat			L.Shank.Upper.Post			L.Shank.Lower.Ant			L.Shank.Lower.Post			L.Shank.Upper.Ant			L.Ankle.Lat			L.Ankle.Med			L.Heel.Upper			L.Heel.Med			L.Heel.Lat			L.Toe.Lat			L.Toe.Med			L.Toe.Tip			Cervical.Spine			Back			
		X1	Y1	Z1	X2	Y2	Z2	X3	Y3	Z3	X4	Y4	Z4	X5	Y5	Z5	X6	Y6	Z6	X7	Y7	Z7	X8	Y8	Z8	X9	Y9	Z9	X10	Y10	Z10	X11	Y11	Z11	X12	Y12	Z12	X13	Y13	Z13	X14	Y14	Z14	X15	Y15	Z15	X16	Y16	Z16	X17	Y17	Z17	X18	Y18	Z18	X19	Y19	Z19	X20	Y20	Z20	X21	Y21	Z21	X22	Y22	Z22	X23	Y23	Z23	X24	Y24	Z24	X25	Y25	Z25	X26	Y26	Z26	X27	Y27	Z27	X28	Y28	Z28	X29	Y29	Z29	X30	Y30	Z30	X31	Y31	Z31	X32	Y32	Z32	X33	Y33	Z33	X34	Y34	Z34	X35	Y35	Z35	X36	Y36	Z36	X37	Y37	Z37	X38	Y38	Z38	X39	Y39	Z39	X40	Y40	Z40	X41	Y41	Z41	X42	Y42	Z42	X43	Y43	Z43	X44	Y44	Z44	X45	Y45	Z45	X46	Y46	Z46	X47	Y47	Z47	X48	Y48	Z48	X49	Y49	Z49	X50	Y50	Z50	

95	0.39167	-855.41	1255.2	318.84	-946.89	1519.9	466.85	-940.22	1534.2	139.64	-947.98	1820.5	289.09	-931.13	1006.8	441.71	-917.64	1018.6	191.65	-1132.9	1022.5	359.73	-1131.4	1033.3	269.19	-1002.9	920.52	505.75	-1027.9	941.62	121.2	-1022.2	1088	481.72	-1016	1090.8	149.11	-1143.8	991.49	324.83	-886.68	715.47	501.76	-820.01	663.61	443.53	-872.78	628.23	479.46	-838.89	749.12	464.5	-846.97	539.69	453.45	-830.79	530.57	318.52	-821.06	291.8	439.04	-738.09	260.09	451.33	-785.76	224.33	425.46	-772.23	329.72	462.84	-697.16	156.17	436.08	-689.89	187.54	352.32	-722.49	77.686	365.23	-691.44	59.528	339.7	-706.11	54.251	402.85	-568.23	121.6	484.09	-525.9	159.69	375.81	-492.99	206.66	431.02	-1070.4	708.94	133.86	-1001.8	623.65	153.65	-1073.8	615.1	152.2	-991.39	711.73	132.05	-1085.3	520.82	162.81	-1188.9	334.87	174.06	-1132.3	265.32	170.49	-1203.9	264.79	193.92	-1123.4	334.12	156.46	-1194.2	119.39	203.2	-1152.1	132.1	285.6	-1253.7	72.195	261.13	-1241.2	46.306	292.06	-1255.6	46.451	231.6	-1078.7	37.049	159.68	-1045.1	49.656	277.15	-985.61	54.758	217.04	-996.28	1563.2	305.6	-1123.5	1291	304.21
96	0.39583	-849.7	1253.8	319.16	-941.37	1518.3	467.47	-934.38	1533.3	140.3	-942.51	1819.2	290.03	-925.36	1005.5	441.8	-911.9	1017.4	191.7	-1127	1021.2	359.76	-1125.4	1032	269.3	-997.09	919.12	505.71	-1022.3	940.78	121.03	-1016.8	1086.6	481.85	-1010.1	1089.8	149.17	-1137.9	990.2	324.81	-880.7	714.24	501.53	-814.12	662.45	443.1	-866.82	627.03	479.1	-832.97	747.93	464.18	-840.72	538.69	453	-824.87	529.5	317.96	-813.12	291.01	438.93	-729.87	259.91	451.01	-777.38	223.77	425.33	-764.46	329.32	462.56	-688.12	156.16	435.77	-681.33	187.54	351.96	-713.19	77.376	365.17	-682.11	59.421	339.52	-696.43	54.069	402.77	-558.6	122.49	483.29	-516.97	160.89	374.67	-484.18	208.06	429.8	-1065.7	708.39	133.61	-997.56	622.8	153.51	-1069.5	614.57	151.93	-986.7	710.82	131.87	-1081.7	520.27	162.6	-1186.7	335.06	173.9	-1130.7	265.1	170.4	-1202.3	265.1	193.83	-1121.2	333.8	156.34	-1193.8	119.64	203.23	-1151.6	132.17	285.7	-1253.5	72.457	261.27	-1241	46.571	292.21	-1255.5	46.677	231.76	-1078.7	36.99	159.68	-1044.9	49.532	277.13	-985.48	54.457	217.01	-990.6	1562	306.21	-1117.6	1289.7	304.3
97	0.4	-843.98	1252.4	319.51	-935.85	1516.8	468.12	-928.51	1532.3	141	-937.03	1818	290.98	-919.61	1004.2	441.89	-906.24	1016.2	191.79	-1121.2	1019.9	359.77	-1119.3	1030.8	269.4	-991.27	917.75	505.7	-1016.6	939.91	120.86	-1011.3	1085.2	481.98	-1004.2	1088.7	149.24	-1132	988.88	324.78	-874.56	713.13	501.29	-808.04	661.41	442.69	-860.67	625.93	478.74	-826.89	746.85	463.88	-834.35	537.74	452.59	-818.8	528.51	317.48	-805.49	290.25	438.76	-722.02	259.59	450.62	-769.43	223.17	425.13	-756.92	328.84	462.23	-679.65	155.98	435.36	-673.28	187.38	351.5	-704.64	76.986	364.98	-673.57	59.179	339.2	-687.55	53.77	402.55	-549.67	122.96	482.37	-508.68	161.58	373.43	-475.9	208.87	428.47	-1060.8	707.81	133.33	-993.15	621.93	153.36	-1065.1	614.01	151.64	-981.9	709.89	131.69	-1077.9	519.69	162.37	-1184.4	335.26	173.72	-1128.9	264.88	170.3	-1200.7	265.43	193.7	-1118.9	333.46	156.21	-1193.4	119.91	203.25	-1151	132.26	285.78	-1253.4	72.768	261.39	-1240.9	46.888	292.34	-1255.4	46.946	231.9	-1078.7	36.928	159.68	-1044.7	49.407	277.11	-985.35	54.151	216.98	-984.91	1560.7	306.85	-1111.7	1288.4	304.4
98	0.40417	-838.25	1251	319.89	-930.32	1515.3	468.8	-922.61	1531.4	141.73	-931.54	1816.8	291.94	-913.84	1002.9	442	-900.67	1014.9	191.9	-1115.4	1018.5	359.78	-1113.3	1029.5	269.48	-985.43	916.42	505.69	-1010.9	939.02	120.7	-1005.9	1083.8	482.11	-998.38	1087.6	149.3	-1126.2	987.54	324.74	-868.27	712.11	501.06	-801.8	660.5	442.3	-854.35	624.94	478.38	-820.66	745.88	463.61	-827.84	536.85	452.23	-812.59	527.6	317.08	-798.15	289.51	438.55	-714.53	259.14	450.15	-761.91	222.53	424.84	-749.63	328.27	461.86	-671.78	155.62	434.84	-665.73	187.04	350.93	-696.84	76.506	364.66	-665.82	58.787	338.75	-679.47	53.345	402.19	-541.44	123	481.32	-501.02	161.75	372.1	-468.15	209.1	427.03	-1055.9	707.19	133.04	-988.63	621.04	153.21	-1060.5	613.4	151.34	-977.01	708.95	131.53	-1073.9	519.07	162.13	-1182	335.45	173.52	-1127.1	264.65	170.2	-1198.9	265.77	193.55	-1116.5	333.11	156.07	-1193	120.22	203.25	-1150.4	132.37	285.84	-1253.3	73.135	261.49	-1240.8	47.264	292.46	-1255.4	47.269	232.03	-1078.6	36.862	159.69	-1044.6	49.284	277.09	-985.21	53.837	216.96	-979.21	1559.5	307.52	-1105.8	1287.1	304.5
99	0.40833	-832.51	1249.7	320.3	-924.78	1513.7	469.51	-916.69	1530.4	142.49	-926.04	1815.6	292.93	-908.08	1001.7	442.1	-895.17	1013.5	192.04	-1109.6	1017.1	359.78	-1107.3	1028.3	269.55	-979.55	915.12	505.71	-1005.2	938.11	120.55	-1000.4	1082.4	482.24	-992.5	1086.5	149.37	-1120.3	986.19	324.7	-861.85	711.18	500.83	-795.38	659.7	441.93	-847.87	624.05	478.02	-814.28	745.02	463.36	-821.22	536.01	451.89	-806.23	526.78	316.75	-791.11	288.8	438.28	-707.41	258.53	449.62	-754.82	221.85	424.47	-742.56	327.6	461.43	-664.48	155.06	434.23	-658.7	186.51	350.27	-689.77	75.931	364.22	-658.85	58.239	338.17	-672.19	52.789	401.7	-533.88	122.61	480.15	-493.97	161.38	370.67	-460.9	208.72	425.49	-1050.8	706.54	132.75	-983.99	620.13	153.07	-1055.8	612.77	151.03	-972.03	708	131.38	-1069.8	518.42	161.88	-1179.5	335.65	173.3	-1125.2	264.42	170.1	-1197	266.14	193.37	-1114	332.75	155.93	-1192.5	120.57	203.23	-1149.8	132.51	285.9	-1253.2	73.569	261.57	-1240.7	47.71	292.56	-1255.3	47.655	232.13	-1078.6	36.791	159.69	-1044.4	49.164	277.06	-985.08	53.516	216.94	-973.49	1558.3	308.22	-1099.9	1285.9	304.61
100	0.4125	-826.76	1248.3	320.73	-919.24	1512.2	470.26	-910.74	1529.5	143.29	-920.53	1814.4	293.93	-902.31	1000.5	442.22	-889.73	1012.2	192.2	-1103.8	1015.8	359.78	-1101.3	1027	269.6	-973.64	913.86	505.74	-999.43	937.17	120.41	-994.89	1081	482.37	-986.62	1085.4	149.44	-1114.4	984.83	324.66	-855.29	710.35	500.6	-788.8	659.02	441.59	-841.22	623.26	477.65	-807.76	744.27	463.13	-814.48	535.24	451.59	-799.74	526.04	316.5	-784.36	288.1	437.97	-700.65	257.78	449.01	-748.15	221.11	424.02	-735.72	326.84	460.96	-657.75	154.32	433.53	-652.18	185.78	349.51	-683.43	75.258	363.66	-652.64	57.528	337.49	-665.68	52.104	401.09	-527	121.8	478.88	-487.51	160.49	369.16	-454.15	207.76	423.86	-1045.7	705.87	132.44	-979.23	619.22	152.93	-1051.1	612.11	150.72	-966.95	707.04	131.25	-1065.6	517.75	161.62	-1176.9	335.87	173.07	-1123.3	264.2	169.99	-1195.1	266.53	193.17	-1111.5	332.39	155.79	-1192	120.97	203.19	-1149.2	132.68	285.94	-1253	74.081	261.62	-1240.6	48.235	292.64	-1255.3	48.115	232.22	-1078.6	36.716	159.69	-1044.2	49.046	277.04	-984.94	53.188	216.92	-967.76	1557.1	308.95	-1094	1284.7	304.73
101	0.41667	-820.99	1246.9	321.19	-913.68	1510.7	471.04	-904.77	1528.6	144.11	-915.01	1813.2	294.96	-896.52	999.3	442.33	-884.32	1010.8	192.38	-1098	1014.4	359.78	-1095.4	1025.7	269.64	-967.7	912.64	505.79	-993.64	936.23	120.29	-989.36	1079.7	482.51	-980.73	1084.3	149.52	-1108.5	983.47	324.63	-848.62	709.6	500.39	-782.09	658.45	441.26	-834.44	622.56	477.29	-801.11	743.61	462.93	-807.63	534.51	451.31	-793.12	525.38	316.3	-777.9	287.4	437.6	-694.23	256.89	448.34	-741.88	220.32	423.5	-729.11	325.98	460.44	-651.57	153.4	432.74	-646.17	184.85	348.67	-677.79	74.491	363	-647.18	56.658	336.7	-659.94	51.296	400.38	-520.77	120.57	477.51	-481.63	159.08	367.57	-447.88	206.22	422.13	-1040.4	705.18	132.13	-974.36	618.29	152.79	-1046.2	611.43	150.4	-961.78	706.08	131.13	-1061.3	517.06	161.35	-1174.3	336.11	172.82	-1121.2	264	169.87	-1193	266.96	192.96	-1108.8	332.04	155.65	-1191.4	121.41	203.14	-1148.5	132.89	285.95	-1252.9	74.682	261.64	-1240.4	48.848	292.7	-1255.2	48.661	232.29	-1078.5	36.636	159.69	-1044.1	48.932	277.02	-984.8	52.852	216.9	-962.01	1555.9	309.72	-1088.1	1283.5	304.86
